<svg width="512" height="512" viewBox="0 0 512 512" fill="none" xmlns="http://www.w3.org/2000/svg">
<g clip-path="url(#clip0)">
<path d="M491.859 156.348C478.968 125.865 460.517 98.483 437.017 74.976C413.501 51.476 386.113 33.016 355.644 20.126C324.084 6.77498 290.553 0.000976562 255.992 0.000976562C221.438 0.000976562 187.909 6.77398 156.347 20.126C125.864 33.016 98.482 51.477 74.974 74.976C51.475 98.483 33.015 125.865 20.124 156.348C6.774 187.91 0 221.44 0 255.993C0 290.553 6.773 324.084 20.125 355.645C33.015 386.114 51.476 413.502 74.975 437.002C98.482 460.518 125.864 478.969 156.348 491.859C187.91 505.203 221.439 511.984 255.993 511.984C290.554 511.984 324.085 505.203 355.645 491.859C386.114 478.968 413.502 460.517 437.018 437.002C460.518 413.502 478.969 386.113 491.86 355.645C505.204 324.084 511.985 290.553 511.985 255.993C511.984 221.44 505.203 187.91 491.859 156.348Z" fill="#ED5564"/>
<path d="M0.10199 263.18C0.97699 295.194 7.69499 326.272 20.125 355.645C33.015 386.114 51.476 413.502 74.975 437.002C98.482 460.518 125.864 478.969 156.348 491.859C187.91 505.203 221.439 511.984 255.993 511.984C290.554 511.984 324.085 505.203 355.645 491.859C386.114 478.968 413.502 460.517 437.018 437.002C460.518 413.502 478.969 386.113 491.86 355.645C504.298 326.272 511.016 295.194 511.891 263.18H0.10199V263.18Z" fill="#E6E9ED"/>
<path d="M510.765 281.211C511.577 272.867 511.984 264.461 511.984 255.993C511.984 246.477 511.468 237.04 510.453 227.704C497.734 229.665 479.469 232.22 456.455 234.758C412.767 239.578 342.551 245.328 255.992 245.328C169.44 245.328 99.216 239.578 55.537 234.758C32.515 232.219 14.257 229.665 1.539 227.704C0.516 237.04 0 246.478 0 255.993C0 264.461 0.406 272.868 1.219 281.211C42.749 287.461 134.246 298.647 255.992 298.647C377.738 298.647 469.234 287.461 510.765 281.211Z" fill="#434A54"/>
<path d="M309.334 266.656C309.334 296.115 285.443 319.99 255.992 319.99C226.54 319.99 202.658 296.115 202.658 266.656C202.658 237.203 226.54 213.329 255.992 213.329C285.443 213.33 309.334 237.204 309.334 266.656Z" fill="#E6E9ED"/>
<path d="M255.992 170.66C203.056 170.66 159.995 213.729 159.995 266.657C159.995 319.585 203.057 362.645 255.992 362.645C308.927 362.645 351.988 319.584 351.988 266.657C351.988 213.729 308.928 170.66 255.992 170.66ZM255.992 309.335C232.47 309.335 213.329 290.179 213.329 266.657C213.329 243.134 232.469 223.994 255.992 223.994C279.523 223.994 298.646 243.134 298.646 266.657C298.646 290.178 279.523 309.335 255.992 309.335Z" fill="#434A54"/>
</g>
<defs>
<clipPath id="clip0">
<rect width="511.985" height="511.985" fill="white"/>
</clipPath>
</defs>
</svg>
